<?xml version="1.0" encoding="utf-8"?><svg xmlns="http://www.w3.org/2000/svg" xmlns:xlink="http://www.w3.org/1999/xlink"><symbol fill="none" viewBox="0 0 20 22" id="auth" xmlns="http://www.w3.org/2000/svg"><path d="M9.935 20.74H4.132c-1.577 0-2.857-1.27-2.857-2.825V4.085c0-1.56 1.284-2.824 2.857-2.824h5.897a.631.631 0 1 0 0-1.261H4.132C1.85 0 0 1.835 0 4.085v13.83C0 20.17 1.856 22 4.132 22h5.803c.354 0 .637-.28.637-.63s-.288-.63-.637-.63z" fill="#7634A8"/><path d="M19.826 10.562l-3.774-3.91a.578.578 0 0 0-.84 0 .63.63 0 0 0 0 .87l2.762 2.862H5.927a.602.602 0 0 0-.594.615c0 .342.264.616.594.616h12.047l-2.762 2.862a.63.63 0 0 0 0 .87.57.57 0 0 0 .836 0l3.773-3.91a.63.63 0 0 0 .005-.875z" fill="#7634A8"/></symbol><symbol fill="none" viewBox="0 0 32 32" id="charts" xmlns="http://www.w3.org/2000/svg"><path d="M29.474 32H2.526A2.53 2.53 0 0 1 0 29.474V2.526A2.53 2.53 0 0 1 2.526 0h26.948A2.53 2.53 0 0 1 32 2.526v26.948A2.53 2.53 0 0 1 29.474 32zM2.526 1.684a.842.842 0 0 0-.842.842v26.948c0 .465.377.842.842.842h26.948a.842.842 0 0 0 .842-.842V2.526a.842.842 0 0 0-.842-.842H2.526z" fill="#fff"/><path d="M10.947 26.948H7.58a.842.842 0 0 1-.842-.843V10.948c0-.465.377-.843.842-.843h3.368c.465 0 .842.378.842.843v15.157a.842.842 0 0 1-.842.843zm-2.526-1.685h1.684V11.79H8.421v13.473zM17.684 26.948h-3.368a.842.842 0 0 1-.842-.843V5.895c0-.465.377-.842.842-.842h3.368c.465 0 .842.377.842.842v20.21a.842.842 0 0 1-.842.843zm-2.526-1.685h1.684V6.737h-1.684v18.526zM24.421 26.948h-3.368a.842.842 0 0 1-.842-.843v-8.42c0-.465.377-.843.842-.843h3.368c.465 0 .842.378.842.842v8.421a.842.842 0 0 1-.842.843zm-2.526-1.685h1.684v-6.737h-1.684v6.737z" fill="#fff"/></symbol><symbol fill="none" viewBox="0 0 32 20" id="cloud" xmlns="http://www.w3.org/2000/svg"><path d="M25.61 6.42c-.098 0-.196.002-.293.007a4.801 4.801 0 0 0-8.9-3.587A9.611 9.611 0 0 0 9.6 0C4.307 0 0 4.307 0 9.6c0 5.293 4.307 9.6 9.6 9.6h16.01A6.398 6.398 0 0 0 32 12.81a6.398 6.398 0 0 0-6.39-6.39zm0 11.182H9.6c-4.411 0-8-3.59-8-8 0-4.412 3.589-8 8-8a8.012 8.012 0 0 1 6.546 3.396l.008.012a.8.8 0 0 0 1.454-.41 3.185 3.185 0 0 1 .618-1.698A3.176 3.176 0 0 1 20.803 1.6c1.765 0 3.2 1.435 3.2 3.2 0 .824-.312 1.606-.88 2.203a.8.8 0 0 0 .853 1.303 4.796 4.796 0 0 1 6.427 4.504 4.796 4.796 0 0 1-4.79 4.79l-.003.002z" fill="#fff"/><path d="M10.246 12.736A3.203 3.203 0 0 1 6.4 9.602v-.469l.234.234a.804.804 0 0 0 1.133 0 .8.8 0 0 0 0-1.132l-1.6-1.6a.8.8 0 0 0-1.132 0l-1.6 1.6a.8.8 0 0 0 1.131 1.132l.234-.234v.469a4.806 4.806 0 0 0 5.766 4.702.8.8 0 0 0-.32-1.568zM14.634 9.835l-.234.234v-.47a4.806 4.806 0 0 0-5.766-4.702.8.8 0 0 0 .32 1.568A3.203 3.203 0 0 1 12.8 9.6v.47l-.234-.234a.8.8 0 0 0-1.13 1.131l1.6 1.6a.804.804 0 0 0 1.133 0l1.599-1.6a.8.8 0 0 0-1.131-1.131h-.003z" fill="#fff"/></symbol><symbol fill="none" viewBox="0 0 32 22" id="graduation-hat" xmlns="http://www.w3.org/2000/svg"><path d="M31.422 5.095L16.265.043a.846.846 0 0 0-.532 0L.576 5.095a.842.842 0 0 0 0 1.597l4.476 1.492v4.446c0 .224.09.438.246.596.148.148 3.695 3.614 10.701 3.614 2.548 0 4.925-.458 7.065-1.362a.843.843 0 0 0-.655-1.551c-1.932.817-4.087 1.23-6.408 1.23-3.276 0-5.686-.85-7.13-1.56-1.07-.527-1.786-1.06-2.133-1.346V8.746l8.997 3a.847.847 0 0 0 .532 0l8.997-3v1.503a2.53 2.53 0 0 0-1.685 2.381 2.53 2.53 0 0 0 1.503 2.309l-1.477 5.908a.842.842 0 0 0 .817 1.046h3.368a.843.843 0 0 0 .817-1.046l-1.477-5.908a2.53 2.53 0 0 0 1.502-2.309 2.53 2.53 0 0 0-1.684-2.381V8.184l4.476-1.492a.842.842 0 0 0 0-1.597h-.002zm-5.318 6.693a.842.842 0 1 1 0 1.685.842.842 0 0 1 0-1.685zm-.606 8.42l.606-2.421.606 2.422h-1.212zm.538-13.496l-9.897-1.65a.841.841 0 1 0-.276 1.66l6.76 1.127L16 10.057 3.506 5.892l12.495-4.165 12.494 4.165-2.457.818-.002.002z" fill="#fff"/></symbol><symbol fill="none" viewBox="0 0 38 39" id="logo" xmlns="http://www.w3.org/2000/svg"><path d="M19.172 39a3.52 3.52 0 0 1-2.474-1.014 3.443 3.443 0 0 1-1.025-2.448V24.72c0-3.17-1.281-5.265-4.19-5.265-2.809 0-4.386 2.583-4.386 5.313v10.773c0 .918-.37 1.798-1.026 2.446A3.52 3.52 0 0 1 3.599 39H3.5a3.52 3.52 0 0 1-2.475-1.014A3.443 3.443 0 0 1 0 35.538v-18.67a3.282 3.282 0 0 1 .982-2.343 3.353 3.353 0 0 1 2.369-.97h.057a3.37 3.37 0 0 1 2.15.773 3.305 3.305 0 0 1 1.146 1.957c1.528-2.632 4.337-3.266 6.407-3.266 2.662 0 5.52.976 7.097 4.486 2.167-3.267 4.484-4.536 8.082-4.536 5.075 0 9.71 2.536 9.71 11.507v11.065c0 .918-.37 1.798-1.026 2.446A3.519 3.519 0 0 1 34.5 39h-.152a3.519 3.519 0 0 1-2.475-1.014 3.443 3.443 0 0 1-1.025-2.448V24.622c0-3.023-.838-5.022-3.696-5.022-2.81 0-4.053 2.39-4.053 5.12V35.54a3.44 3.44 0 0 1-1.023 2.444A3.517 3.517 0 0 1 19.606 39h-.434z" fill="#819195"/><path d="M21.005 11.049l-.975 1.904-2.903-7.063s1.3 4.928 1.903 7.25l-1.756-.88a8.043 8.043 0 0 1-4.029-4.646 7.94 7.94 0 0 1 .46-6.105 2.789 2.789 0 0 1 2.69-1.501c.365.027.72.125 1.046.288a8.077 8.077 0 0 1 2.484 1.926 7.978 7.978 0 0 1 1.55 2.72 7.922 7.922 0 0 1-.47 6.107zM23.87 11.672l-1.478-.203 4.017-3.464s-2.966 1.945-4.365 2.856l.187-1.333c.1-.72.344-1.413.716-2.04a5.551 5.551 0 0 1 1.451-1.613 5.65 5.65 0 0 1 4.144-1.065 1.935 1.935 0 0 1 1.268.736 1.892 1.892 0 0 1 .37 1.408 5.49 5.49 0 0 1-.715 2.04 5.55 5.55 0 0 1-1.451 1.613 5.649 5.649 0 0 1-4.144 1.065z" fill="#819195"/></symbol><symbol fill="none" viewBox="0 0 38 39" id="logo-white" xmlns="http://www.w3.org/2000/svg"><path d="M19.172 39a3.519 3.519 0 0 1-2.474-1.014 3.443 3.443 0 0 1-1.025-2.448V24.72c0-3.17-1.281-5.266-4.19-5.266-2.809 0-4.386 2.584-4.386 5.314V35.54c0 .917-.37 1.797-1.026 2.446A3.519 3.519 0 0 1 3.599 39H3.5a3.519 3.519 0 0 1-2.475-1.014A3.443 3.443 0 0 1 0 35.538v-18.67a3.282 3.282 0 0 1 .982-2.343 3.38 3.38 0 0 1 2.37-.97h.056c.786 0 1.547.274 2.15.773a3.305 3.305 0 0 1 1.146 1.957c1.528-2.633 4.337-3.266 6.407-3.266 2.662 0 5.52.975 7.097 4.485 2.167-3.266 4.484-4.535 8.082-4.535 5.075 0 9.71 2.536 9.71 11.507v11.065c0 .918-.37 1.798-1.026 2.446A3.52 3.52 0 0 1 34.5 39h-.152a3.519 3.519 0 0 1-2.475-1.014 3.443 3.443 0 0 1-1.025-2.448V24.622c0-3.023-.838-5.022-3.696-5.022-2.81 0-4.053 2.389-4.053 5.119V35.54c0 .916-.368 1.796-1.023 2.444A3.517 3.517 0 0 1 19.606 39h-.434z" fill="#fff"/><path d="M21.005 11.049l-.975 1.904-2.903-7.063s1.3 4.928 1.903 7.25l-1.756-.88a8.043 8.043 0 0 1-4.029-4.646 7.94 7.94 0 0 1 .46-6.105 2.789 2.789 0 0 1 2.69-1.501c.365.027.72.125 1.046.288a8.077 8.077 0 0 1 2.484 1.926 7.978 7.978 0 0 1 1.55 2.72 7.922 7.922 0 0 1-.47 6.107zM23.87 11.672l-1.478-.203 4.017-3.464s-2.966 1.945-4.365 2.856l.187-1.333c.1-.72.344-1.413.716-2.04a5.551 5.551 0 0 1 1.451-1.613 5.65 5.65 0 0 1 4.144-1.065 1.935 1.935 0 0 1 1.268.736 1.892 1.892 0 0 1 .37 1.408 5.49 5.49 0 0 1-.715 2.04 5.55 5.55 0 0 1-1.451 1.613 5.649 5.649 0 0 1-4.144 1.065z" fill="#fff"/></symbol><symbol fill="none" viewBox="0 0 12 20" id="map-marker" xmlns="http://www.w3.org/2000/svg"><path d="M5.999 20a.5.5 0 0 1-.393-.191c-.057-.073-1.418-1.814-2.797-4.385-.812-1.513-1.46-2.999-1.925-4.416C.297 9.221 0 7.536 0 6c0-3.308 2.692-6 6-6s6 2.692 6 6c0 1.536-.298 3.22-.884 5.008-.465 1.417-1.113 2.903-1.925 4.416-1.38 2.571-2.74 4.312-2.797 4.385a.5.5 0 0 1-.393.191h-.002zm0-19c-2.757 0-5 2.243-5 5 0 3.254 1.463 6.664 2.691 8.951a34.411 34.411 0 0 0 2.309 3.71 34.38 34.38 0 0 0 2.318-3.726C9.54 12.652 10.999 9.248 10.999 6c0-2.757-2.243-5-5-5z" fill="#fff" fill-opacity=".48"/><path d="M5.999 9c-1.654 0-3-1.346-3-3s1.346-3 3-3 3 1.346 3 3-1.346 3-3 3zm0-5c-1.103 0-2 .897-2 2s.897 2 2 2 2-.897 2-2-.897-2-2-2z" fill="#fff" fill-opacity=".48"/></symbol><symbol fill="none" viewBox="0 0 22 22" id="person" xmlns="http://www.w3.org/2000/svg"><circle cx="11" cy="11" r="10.5" stroke="#7634A8"/><mask id="ha" maskUnits="userSpaceOnUse" x="0" y="0" width="22" height="22"><circle cx="11" cy="11" r="10.5" fill="#F4F4F4" stroke="#7634A8"/></mask><g mask="url(#ha)"><path fill-rule="evenodd" clip-rule="evenodd" d="M16.823 20.383c0 1.608-1.422 2.911-3.176 2.911H8.353c-1.754 0-3.177-1.303-3.177-2.911V18.44c0-1.375 1.044-2.52 2.443-2.825.955.757 2.12 1.208 3.381 1.208 1.262 0 2.427-.45 3.38-1.208 1.4.305 2.443 1.45 2.443 2.825v1.942zM6.471 10.353c0-2.859 2.027-5.176 4.529-5.176s4.53 2.317 4.53 5.176S13.501 15.53 11 15.53c-2.502 0-4.53-2.318-4.53-5.177zm9.027 4.11c.827-1.117 1.325-2.55 1.325-4.11 0-3.573-2.607-6.47-5.823-6.47-3.217 0-5.824 2.897-5.824 6.47 0 1.56.499 2.993 1.326 4.11a3.87 3.87 0 0 0-2.62 3.655v2.588a3.883 3.883 0 0 0 3.883 3.882h6.47a3.883 3.883 0 0 0 3.883-3.882v-2.588c0-1.7-1.1-3.129-2.62-3.654z" fill="#7634A8"/></g></symbol></svg>