<svg id="auth" width="20" height="22" viewBox="0 0 20 22" fill="none" xmlns="http://www.w3.org/2000/svg">
<path d="M9.93478 20.7394H4.13162C2.55452 20.7394 1.2749 19.4694 1.2749 17.9147V4.08531C1.2749 2.52589 2.55924 1.26061 4.13162 1.26061H10.0292C10.3834 1.26061 10.6667 0.980475 10.6667 0.630306C10.6667 0.280136 10.3834 0 10.0292 0H4.13162C1.85097 0 0 1.83489 0 4.08531V17.9147C0 20.1698 1.85569 22 4.13162 22H9.93478C10.2889 22 10.5722 21.7199 10.5722 21.3697C10.5722 21.0195 10.2842 20.7394 9.93478 20.7394Z" fill="#7634A8"/>
<path d="M19.8257 10.5619L16.052 6.65174C15.8189 6.4102 15.445 6.4102 15.2119 6.65174C14.9788 6.89328 14.9788 7.28065 15.2119 7.52219L17.974 10.3842H5.9271C5.59723 10.3842 5.33333 10.6576 5.33333 10.9994C5.33333 11.3412 5.59723 11.6147 5.9271 11.6147H17.974L15.2119 14.4767C14.9788 14.7182 14.9788 15.1056 15.2119 15.3471C15.3263 15.4656 15.4802 15.5294 15.6297 15.5294C15.7793 15.5294 15.9332 15.4702 16.0476 15.3471L19.8213 11.4369C20.0588 11.1908 20.0588 10.7989 19.8257 10.5619Z" fill="#7634A8"/>
</svg>
