<svg id="charts" width="32" height="32" viewBox="0 0 32 32" fill="none" xmlns="http://www.w3.org/2000/svg">
<path d="M29.4737 32H2.52632C1.13347 32 0 30.8665 0 29.4737V2.52632C0 1.13347 1.13347 0 2.52632 0H29.4737C30.8665 0 32 1.13347 32 2.52632V29.4737C32 30.8665 30.8665 32 29.4737 32ZM2.52632 1.68421C2.06147 1.68421 1.68421 2.06147 1.68421 2.52632V29.4737C1.68421 29.9385 2.06147 30.3158 2.52632 30.3158H29.4737C29.9385 30.3158 30.3158 29.9385 30.3158 29.4737V2.52632C30.3158 2.06147 29.9385 1.68421 29.4737 1.68421H2.52632Z" fill="white"/>
<path d="M10.9473 26.9476H7.57892C7.11408 26.9476 6.73682 26.5703 6.73682 26.1055V10.9476C6.73682 10.4827 7.11408 10.1055 7.57892 10.1055H10.9473C11.4122 10.1055 11.7894 10.4827 11.7894 10.9476V26.1055C11.7894 26.5703 11.4122 26.9476 10.9473 26.9476ZM8.42103 25.2634H10.1052V11.7897H8.42103V25.2634Z" fill="white"/>
<path d="M17.6842 26.9475H14.3157C13.8509 26.9475 13.4736 26.5702 13.4736 26.1054V5.89484C13.4736 5.43 13.8509 5.05273 14.3157 5.05273H17.6842C18.149 5.05273 18.5263 5.43 18.5263 5.89484V26.1054C18.5263 26.5702 18.149 26.9475 17.6842 26.9475ZM15.1578 25.2633H16.8421V6.73694H15.1578V25.2633Z" fill="white"/>
<path d="M24.4211 26.9475H21.0527C20.5878 26.9475 20.2106 26.5703 20.2106 26.1054V17.6844C20.2106 17.2195 20.5878 16.8423 21.0527 16.8423H24.4211C24.8859 16.8423 25.2632 17.2195 25.2632 17.6844V26.1054C25.2632 26.5703 24.8859 26.9475 24.4211 26.9475ZM21.8948 25.2633H23.579V18.5265H21.8948V25.2633Z" fill="white"/>
</svg>
