<svg id="cloud" width="32" height="20" viewBox="0 0 32 20" fill="none" xmlns="http://www.w3.org/2000/svg">
<path d="M25.6096 6.4208C25.512 6.4208 25.4144 6.4224 25.3168 6.4272C25.5024 5.912 25.6 5.3616 25.6 4.8C25.6 2.1536 23.4464 1.15967e-07 20.8 1.15967e-07C19.2832 1.15967e-07 17.8384 0.7296 16.936 1.952C16.7296 2.2304 16.5568 2.528 16.4176 2.84C14.6208 1.0288 12.1648 1.15967e-07 9.6 1.15967e-07C4.3072 1.15967e-07 0 4.3072 0 9.6C0 14.8928 4.3072 19.2 9.6 19.2H25.6096C29.1328 19.2 32 16.3328 32 12.8096C32 9.2864 29.1328 6.4192 25.6096 6.4192V6.4208ZM25.6096 17.6016H9.6C5.1888 17.6016 1.6 14.0128 1.6 9.6016C1.6 5.1904 5.1888 1.6016 9.6 1.6016C11.8848 1.6016 14.0656 2.5824 15.584 4.2912C15.784 4.5168 15.9728 4.7552 16.1456 4.9984L16.1536 5.0096C16.3488 5.288 16.6976 5.4144 17.0256 5.3216C17.3536 5.2288 17.5872 4.9408 17.608 4.6C17.6464 3.9856 17.8592 3.3984 18.2256 2.9024C18.8368 2.0752 19.776 1.6 20.8032 1.6C22.568 1.6 24.0032 3.0352 24.0032 4.8C24.0032 5.624 23.6912 6.4064 23.1232 7.0032C22.8672 7.272 22.8304 7.6816 23.0336 7.992C23.2368 8.3024 23.6272 8.432 23.976 8.3056C24.4992 8.1152 25.0496 8.0192 25.6128 8.0192C28.2544 8.0192 30.4032 10.168 30.4032 12.8096C30.4032 15.4512 28.2544 17.6 25.6128 17.6L25.6096 17.6016Z" fill="white"/>
<path d="M10.2464 12.7362C10.0352 12.7794 9.81757 12.8018 9.59997 12.8018C7.83517 12.8018 6.39997 11.3666 6.39997 9.60177V9.13297L6.63357 9.36657C6.79037 9.52337 6.99517 9.60017 7.19997 9.60017C7.40477 9.60017 7.60957 9.52177 7.76637 9.36657C8.07837 9.05457 8.07837 8.54737 7.76637 8.23537L6.16637 6.63537C5.85437 6.32337 5.34717 6.32337 5.03517 6.63537L3.43517 8.23537C3.12317 8.54737 3.12317 9.05457 3.43517 9.36657C3.74717 9.67857 4.25437 9.67857 4.56637 9.36657L4.79997 9.13297V9.60177C4.79997 12.2482 6.95357 14.4018 9.59997 14.4018C9.92477 14.4018 10.2496 14.3682 10.5664 14.3042C11 14.2162 11.2784 13.7922 11.1904 13.3602C11.1024 12.9282 10.68 12.6482 10.2464 12.7362Z" fill="white"/>
<path d="M14.6336 9.835L14.4 10.0686V9.5998C14.4 6.9534 12.2464 4.7998 9.60005 4.7998C9.27525 4.7998 8.95045 4.8334 8.63365 4.8974C8.20005 4.9854 7.92165 5.4094 8.00965 5.8414C8.09765 6.2734 8.52165 6.5534 8.95365 6.4654C9.16485 6.4222 9.38245 6.3998 9.60005 6.3998C11.3648 6.3998 12.8 7.835 12.8 9.5998V10.0686L12.5664 9.835C12.2544 9.523 11.7472 9.523 11.4352 9.835C11.1232 10.147 11.1232 10.6542 11.4352 10.9662L13.0352 12.5662C13.192 12.723 13.3968 12.7998 13.6016 12.7998C13.8064 12.7998 14.0112 12.7214 14.168 12.5662L15.768 10.9662C16.08 10.6542 16.08 10.147 15.768 9.835C15.456 9.523 14.9488 9.523 14.6368 9.835H14.6336Z" fill="white"/>
</svg>
