<svg id="graduation-hat" width="32" height="22" viewBox="0 0 32 22" fill="none" xmlns="http://www.w3.org/2000/svg">
<path d="M31.4223 5.09531L16.2652 0.0429452C16.0918 -0.014315 15.9048 -0.014315 15.7331 0.0429452L0.57597 5.09531C0.232409 5.20983 0 5.5315 0 5.89358C0 6.25567 0.232409 6.57734 0.57597 6.69186L5.05237 8.18399V12.6301C5.05237 12.8541 5.14162 13.0679 5.29825 13.2263C5.44645 13.3745 8.99321 16.8404 15.9992 16.8404C18.5472 16.8404 20.9235 16.3823 23.064 15.4779C23.4918 15.2977 23.6922 14.8026 23.512 14.3748C23.3318 13.9471 22.8367 13.7466 22.4089 13.9268C20.4772 14.7436 18.3216 15.1563 16.0008 15.1563C12.7252 15.1563 10.3152 14.3075 8.87027 13.5968C7.80085 13.0696 7.0851 12.5374 6.73817 12.2511V8.74649L15.7348 11.7459C15.8206 11.7745 15.9116 11.7897 16.0008 11.7897C16.0901 11.7897 16.181 11.7745 16.2669 11.7459L25.2635 8.74649V10.2487C24.2834 10.5957 23.5794 11.532 23.5794 12.6301C23.5794 13.6591 24.1975 14.5449 25.0816 14.939L23.6047 20.8469C23.5423 21.0978 23.5979 21.3656 23.7579 21.5694C23.9179 21.7732 24.1621 21.8927 24.4215 21.8927H27.7897C28.049 21.8927 28.2932 21.7732 28.4532 21.5694C28.6132 21.3656 28.6688 21.0978 28.6065 20.8469L27.1295 14.939C28.0137 14.5449 28.6318 13.6591 28.6318 12.6301C28.6318 11.532 27.9278 10.5957 26.9476 10.2487V8.18399L31.424 6.69186C31.7676 6.57734 32 6.25567 32 5.89358C32 5.5315 31.7676 5.20983 31.424 5.09531H31.4223ZM26.1039 11.788C26.5687 11.788 26.946 12.1653 26.946 12.6301C26.946 13.0949 26.5687 13.4721 26.1039 13.4721C25.6391 13.4721 25.2618 13.0949 25.2618 12.6301C25.2618 12.1653 25.6391 11.788 26.1039 11.788ZM25.4976 20.2086L26.1039 17.7869L26.7102 20.2086H25.4993H25.4976ZM26.0365 6.71207L16.1389 5.06163C15.6792 4.98584 15.2464 5.29572 15.1706 5.7538C15.0948 6.21188 15.4047 6.64639 15.8627 6.72217L22.6228 7.84885L16.0008 10.0567L3.50634 5.8919L16.0008 1.72707L28.4953 5.8919L26.0382 6.71038L26.0365 6.71207Z" fill="white"/>
</svg>
