<svg id="logo-white" width="38" height="39" viewBox="0 0 38 39" fill="none" xmlns="http://www.w3.org/2000/svg">
<path d="M19.1723 38.9998C18.2442 38.9998 17.354 38.6351 16.6977 37.9858C16.0414 37.3366 15.6727 36.4561 15.6727 35.538V24.7198C15.6727 21.5507 14.3916 19.4543 11.4839 19.4543C8.6745 19.4543 7.09749 22.0379 7.09749 24.7679V35.5407C7.09675 36.4584 6.72771 37.3382 6.0715 37.9868C5.41528 38.6355 4.52557 38.9998 3.59791 38.9998H3.49958C2.57143 38.9998 1.6813 38.6351 1.025 37.9858C0.368705 37.3366 1.14315e-07 36.4561 1.14315e-07 35.538V16.8678C4.55103e-08 16.4327 0.0866819 16.0017 0.255092 15.5997C0.423503 15.1977 0.670341 14.8324 0.981505 14.5248C1.29267 14.2171 1.66206 13.9731 2.06857 13.8068C2.47509 13.6404 2.91075 13.5549 3.35068 13.5551H3.40781C4.19377 13.5552 4.95467 13.8287 5.55731 14.3278C6.15995 14.8269 6.56593 15.5198 6.70417 16.2852C8.23155 13.6524 11.041 13.0188 13.1115 13.0188C15.7729 13.0188 18.631 13.9942 20.208 17.5043C22.375 14.2379 24.6919 12.9688 28.2898 12.9688C33.3654 12.9688 38 15.5052 38 24.4761V35.5407C37.9993 36.4585 37.6301 37.3385 36.9737 37.9872C36.3173 38.6358 35.4273 39 34.4995 38.9998H34.3478C33.4196 38.9998 32.5295 38.6351 31.8732 37.9858C31.2169 37.3366 30.8482 36.4561 30.8482 35.538V24.6216C30.8482 21.5988 30.0101 19.5997 27.152 19.5997C24.3426 19.5997 23.0989 21.9888 23.0989 24.7189V35.5407C23.0987 36.4574 22.7307 37.3365 22.0758 37.9851C21.4209 38.6336 20.5326 38.9986 19.6059 38.9998H19.1723Z" fill="white"/>
<path d="M21.005 11.0487L20.0301 12.9533L17.1271 5.88974C17.1271 5.88974 18.4269 10.818 19.03 13.1395L17.2741 12.2604C15.3626 11.2997 13.9139 9.62885 13.245 7.61378C12.5761 5.59871 12.7416 3.40357 13.7052 1.50893C13.8699 1.18661 14.0972 0.899563 14.3741 0.664174C14.6511 0.428786 14.9721 0.249671 15.319 0.137062C15.6659 0.024453 16.0319 -0.0194437 16.3959 0.00787969C16.76 0.0352031 17.115 0.133211 17.4408 0.296305C18.3885 0.770778 19.2325 1.42528 19.9246 2.22243C20.6167 3.01959 21.1432 3.94379 21.4742 4.94225C21.8051 5.94071 21.934 6.99389 21.8535 8.04164C21.773 9.08939 21.4847 10.1112 21.005 11.0487Z" fill="white"/>
<path d="M23.8697 11.6721L22.3919 11.4692L26.4085 8.0046C26.4085 8.0046 23.4427 9.94998 22.0436 10.8606L22.2309 9.52756C22.3318 8.80779 22.5752 8.11477 22.9471 7.48809C23.319 6.86142 23.812 6.31338 24.3981 5.8753C24.9842 5.43723 25.6518 5.11771 26.3628 4.935C27.0738 4.75229 27.8142 4.70997 28.5417 4.81047C28.7916 4.84472 29.0323 4.92735 29.2499 5.05362C29.4676 5.1799 29.6579 5.34736 29.8101 5.54642C29.9623 5.74549 30.0733 5.97227 30.1369 6.2138C30.2005 6.45533 30.2153 6.70689 30.1805 6.9541C30.0797 7.67395 29.8364 8.36707 29.4646 8.99385C29.0927 9.62063 28.5997 10.1688 28.0136 10.6069C27.4275 11.0451 26.7598 11.3647 26.0488 11.5475C25.3378 11.7303 24.5973 11.7726 23.8697 11.6721Z" fill="white"/>
</svg>
