<svg id="logo" width="38" height="39" viewBox="0 0 38 39" fill="none" xmlns="http://www.w3.org/2000/svg">
<path d="M19.1723 39C18.2442 39 17.354 38.6353 16.6977 37.9861C16.0414 37.3369 15.6727 36.4563 15.6727 35.5382V24.72C15.6727 21.5509 14.3916 19.4545 11.4839 19.4545C8.6745 19.4545 7.09749 22.0382 7.09749 24.7682V35.541C7.09675 36.4586 6.72771 37.3385 6.0715 37.9871C5.41528 38.6357 4.52557 39 3.59791 39H3.49958C2.57143 39 1.6813 38.6353 1.025 37.9861C0.368705 37.3369 1.14315e-07 36.4563 1.14315e-07 35.5382V16.8681C4.55103e-08 16.4329 0.0866819 16.002 0.255092 15.5999C0.423503 15.1979 0.670341 14.8326 0.981505 14.525C1.29267 14.2174 1.66206 13.9734 2.06857 13.807C2.47509 13.6407 2.91075 13.5551 3.35068 13.5554H3.40781C4.19377 13.5554 4.95467 13.829 5.55731 14.3281C6.15995 14.8272 6.56593 15.52 6.70417 16.2854C8.23155 13.6527 11.041 13.019 13.1115 13.019C15.7729 13.019 18.631 13.9945 20.208 17.5045C22.375 14.2381 24.6919 12.969 28.2898 12.969C33.3654 12.969 38 15.5054 38 24.4764V35.541C37.9993 36.4588 37.6301 37.3388 36.9737 37.9874C36.3173 38.6361 35.4273 39.0003 34.4995 39H34.3478C33.4196 39 32.5295 38.6353 31.8732 37.9861C31.2169 37.3369 30.8482 36.4563 30.8482 35.5382V24.6218C30.8482 21.5991 30.0101 19.6 27.152 19.6C24.3426 19.6 23.0989 21.9891 23.0989 24.7191V35.541C23.0987 36.4577 22.7307 37.3368 22.0758 37.9853C21.4209 38.6339 20.5326 38.9988 19.6059 39H19.1723Z" fill="#819195"/>
<path d="M21.005 11.0487L20.0301 12.9533L17.1271 5.88974C17.1271 5.88974 18.4269 10.818 19.03 13.1395L17.2741 12.2604C15.3626 11.2997 13.9139 9.62885 13.245 7.61378C12.5761 5.59871 12.7416 3.40357 13.7052 1.50893C13.8699 1.18661 14.0972 0.899563 14.3741 0.664174C14.6511 0.428786 14.9721 0.249671 15.319 0.137062C15.6659 0.024453 16.0319 -0.0194437 16.3959 0.00787969C16.76 0.0352031 17.115 0.133211 17.4408 0.296305C18.3885 0.770778 19.2325 1.42528 19.9246 2.22243C20.6167 3.01959 21.1432 3.94379 21.4742 4.94225C21.8051 5.94071 21.934 6.99389 21.8535 8.04164C21.773 9.08939 21.4847 10.1112 21.005 11.0487Z" fill="#819195"/>
<path d="M23.8697 11.6721L22.3919 11.4692L26.4085 8.0046C26.4085 8.0046 23.4427 9.94998 22.0436 10.8606L22.2309 9.52756C22.3318 8.80779 22.5752 8.11477 22.9471 7.48809C23.319 6.86142 23.812 6.31338 24.3981 5.8753C24.9842 5.43723 25.6518 5.11771 26.3628 4.935C27.0738 4.75229 27.8142 4.70997 28.5417 4.81047C28.7916 4.84472 29.0323 4.92735 29.2499 5.05362C29.4676 5.1799 29.6579 5.34736 29.8101 5.54642C29.9623 5.74549 30.0733 5.97227 30.1369 6.2138C30.2005 6.45533 30.2153 6.70689 30.1805 6.9541C30.0797 7.67395 29.8364 8.36707 29.4646 8.99385C29.0927 9.62063 28.5997 10.1688 28.0136 10.6069C27.4275 11.0451 26.7598 11.3647 26.0488 11.5475C25.3378 11.7303 24.5973 11.7726 23.8697 11.6721Z" fill="#819195"/>
</svg>
