<svg id="person" width="22" height="22" viewBox="0 0 22 22" fill="none" xmlns="http://www.w3.org/2000/svg">
<circle cx="11" cy="11" r="10.5" fill="none" stroke="#7634A8"/>
<mask id="mask0" mask-type="alpha" maskUnits="userSpaceOnUse" x="0" y="0" width="22" height="22">
<circle cx="11" cy="11" r="10.5" fill="#F4F4F4" stroke="#7634A8"/>
</mask>
<g mask="url(#mask0)">
<path fill-rule="evenodd" clip-rule="evenodd" d="M16.8235 20.3826C16.8235 21.9905 15.4013 23.2944 13.6471 23.2944H8.35286C6.59869 23.2944 5.17645 21.9905 5.17645 20.3826V18.4414C5.17645 17.0658 6.22016 15.9205 7.6191 15.6157C8.57351 16.3734 9.73822 16.8238 11 16.8238C12.2617 16.8238 13.4265 16.3734 14.3809 15.6157C15.7798 15.9205 16.8235 17.0658 16.8235 18.4414V20.3826ZM6.47058 10.353C6.47058 7.49428 8.49846 5.17651 11 5.17651C13.5015 5.17651 15.5294 7.49428 15.5294 10.353C15.5294 13.2117 13.5015 15.5295 11 15.5295C8.49846 15.5295 6.47058 13.2117 6.47058 10.353ZM15.4977 14.4637C16.3253 13.3456 16.8235 11.9136 16.8235 10.3529C16.8235 6.77985 14.2165 3.88232 11 3.88232C7.78344 3.88232 5.17644 6.77985 5.17644 10.3529C5.17644 11.9136 5.67468 13.3456 6.50227 14.4637C4.98168 14.9891 3.88232 16.4178 3.88232 18.1176V20.7059C3.88232 22.8496 5.62097 24.5882 7.76468 24.5882H14.2353C16.379 24.5882 18.1176 22.8496 18.1176 20.7059V18.1176C18.1176 16.4178 17.0183 14.9891 15.4977 14.4637Z" fill="#7634A8"/>
</g>
</svg>
